D:\school\WTK\thesis\model\3dpredictsim\Results\Batchsim_tmt_linear_v2\Pog_s1_tmt_aCst_d05_k1000_ig24_act_GRF.mot
nRows=25
nColumns=19

name D:\school\WTK\thesis\model\3dpredictsim\Results\Batchsim_tmt_linear_v2\Pog_s1_tmt_aCst_d05_k1000_ig24_act_GRF.mot
datacolumns 19
datarows 25
range 0.0000000000 0.3060937762
endheader
time 	ground_force_vx	ground_force_vy	ground_force_vz	ground_force_px	ground_force_py	ground_force_pz	1_ground_force_vx	1_ground_force_vy	1_ground_force_vz	1_ground_force_px	1_ground_force_py	1_ground_force_pz	ground_torque_x	ground_torque_y	ground_torque_z	1_ground_torque_x	1_ground_torque_y	1_ground_torque_z
        0.0000000000	      -87.7880183505	       73.2818972398	        9.4643800671	        0.2032614410	        0.0000000000	        0.0513630289	       27.6516958539	      218.6535127659	       -4.9764232810	       -0.3484217475	        0.0000000000	       -0.0400665525	        0.0000000000	        0.0000000000	        0.0000000000	        0.0000000000	        0.0000000000	        0.0000000000	
        0.0127539073	     -132.9417331752	      241.9590953061	       13.9783873673	        0.2103991652	        0.0000000000	        0.0505875861	       20.6906016793	      189.7219225475	      -10.5338016375	       -0.3481746163	        0.0000000000	       -0.0402007946	        0.0000000000	        0.0000000000	        0.0000000000	        0.0000000000	        0.0000000000	        0.0000000000	
        0.0255078147	     -100.3452260801	      523.7163198213	       -2.6626641630	        0.2151119134	        0.0000000000	        0.0505050210	       19.2553038473	      148.8754314294	      -11.7290955460	       -0.3476273093	        0.0000000000	       -0.0403701383	        0.0000000000	        0.0000000000	        0.0000000000	        0.0000000000	        0.0000000000	        0.0000000000	
        0.0382617220	     -144.0585369088	      815.6918069372	      -19.1696642909	        0.2257766213	        0.0000000000	        0.0528347881	       11.8964827865	       96.6735741414	      -12.0839493030	       -0.3472243818	        0.0000000000	       -0.0406836778	        0.0000000000	        0.0000000000	        0.0000000000	        0.0000000000	        0.0000000000	        0.0000000000	
        0.0510156294	     -198.0599340199	      998.3100718371	      -25.2213376138	        0.2357960969	        0.0000000000	        0.0552912429	       -3.2028892271	       38.9484005972	       -6.8722416530	       -0.3480835090	        0.0000000000	       -0.0408197938	        0.0000000000	        0.0000000000	        0.0000000000	        0.0000000000	        0.0000000000	        0.0000000000	
        0.0637695367	     -195.3014388973	      995.3803550468	      -25.8351260631	        0.2423489899	        0.0000000000	        0.0566941537	       -4.5832897432	        4.4470647023	        0.1162478015	        0.0000000000	        0.0000000000	        0.0000000000	        0.0000000000	        0.0000000000	        0.0000000000	        0.0000000000	        0.0000000000	        0.0000000000	
        0.0765234441	     -171.3641754885	      905.6815021973	      -21.5927335132	        0.2470889190	        0.0000000000	        0.0575935207	      -10.3746976148	        8.0150703042	        0.8760921867	        0.0000000000	        0.0000000000	        0.0000000000	        0.0000000000	        0.0000000000	        0.0000000000	        0.0000000000	        0.0000000000	        0.0000000000	
        0.0892773514	     -147.3454227695	      824.0514961032	      -18.5084719399	        0.2513630482	        0.0000000000	        0.0581351446	       -9.1927990137	        6.1035260449	        0.7967195381	        0.0000000000	        0.0000000000	        0.0000000000	        0.0000000000	        0.0000000000	        0.0000000000	        0.0000000000	        0.0000000000	        0.0000000000	
        0.1020312587	     -128.5137862283	      773.4772715143	      -17.0242439764	        0.2562146704	        0.0000000000	        0.0586258048	       -6.7114493082	        3.9932505619	        0.5462021934	        0.0000000000	        0.0000000000	        0.0000000000	        0.0000000000	        0.0000000000	        0.0000000000	        0.0000000000	        0.0000000000	        0.0000000000	
        0.1147851661	     -117.4656593274	      744.8603729597	      -15.8731073156	        0.2623926666	        0.0000000000	        0.0587677401	       -4.0186410320	        2.1998407537	        0.2948114189	        0.0000000000	        0.0000000000	        0.0000000000	        0.0000000000	        0.0000000000	        0.0000000000	        0.0000000000	        0.0000000000	        0.0000000000	
        0.1275390734	     -106.2868981442	      717.0475621617	      -15.0712334913	        0.2682357933	        0.0000000000	        0.0586757170	       -3.0118123283	        1.5539129613	        0.1897601916	        0.0000000000	        0.0000000000	        0.0000000000	        0.0000000000	        0.0000000000	        0.0000000000	        0.0000000000	        0.0000000000	        0.0000000000	
        0.1402929808	      -94.7996474581	      687.3634626546	      -14.5244035198	        0.2733418612	        0.0000000000	        0.0585469237	       -2.2453919892	        1.1128003298	        0.1077094546	        0.0000000000	        0.0000000000	        0.0000000000	        0.0000000000	        0.0000000000	        0.0000000000	        0.0000000000	        0.0000000000	        0.0000000000	
        0.1530468881	      -84.8168360555	      661.0879711973	      -14.6775286601	        0.2780816304	        0.0000000000	        0.0583556467	       -1.6481845258	        0.7897784826	        0.0593108215	        0.0000000000	        0.0000000000	        0.0000000000	        0.0000000000	        0.0000000000	        0.0000000000	        0.0000000000	        0.0000000000	        0.0000000000	
        0.1658007955	      -75.7528691492	      639.2070279617	      -15.0805099259	        0.2825381530	        0.0000000000	        0.0581658930	       -1.2755385677	        0.5938200164	        0.0325858271	        0.0000000000	        0.0000000000	        0.0000000000	        0.0000000000	        0.0000000000	        0.0000000000	        0.0000000000	        0.0000000000	        0.0000000000	
        0.1785547028	      -67.7311776671	      621.2369771832	      -15.8780838821	        0.2867488485	        0.0000000000	        0.0579822054	       -1.0700613904	        0.4861446038	        0.0181962462	        0.0000000000	        0.0000000000	        0.0000000000	        0.0000000000	        0.0000000000	        0.0000000000	        0.0000000000	        0.0000000000	        0.0000000000	
        0.1913086101	      -60.2951052112	      606.6899296557	      -16.8395335620	        0.2907501366	        0.0000000000	        0.0577868064	       -0.9720166366	        0.4319370347	        0.0098505270	        0.0000000000	        0.0000000000	        0.0000000000	        0.0000000000	        0.0000000000	        0.0000000000	        0.0000000000	        0.0000000000	        0.0000000000	
        0.2040625175	      -53.4016999572	      594.5492028699	      -17.8453289189	        0.2945492956	        0.0000000000	        0.0575775468	       -0.9650150626	        0.4199787920	        0.0051153179	        0.0000000000	        0.0000000000	        0.0000000000	        0.0000000000	        0.0000000000	        0.0000000000	        0.0000000000	        0.0000000000	        0.0000000000	
        0.2168164248	      -47.3350202216	      584.2871790693	      -18.7729415209	        0.2980939952	        0.0000000000	        0.0573545419	       -1.0323330181	        0.4404886511	        0.0020396852	        0.0000000000	        0.0000000000	        0.0000000000	        0.0000000000	        0.0000000000	        0.0000000000	        0.0000000000	        0.0000000000	        0.0000000000	
        0.2295703322	      -41.9299926315	      575.2989588377	      -19.0467221533	        0.3013362351	        0.0000000000	        0.0571417500	       -1.1577182106	        0.4852517112	       -0.0007158158	        0.0000000000	        0.0000000000	        0.0000000000	        0.0000000000	        0.0000000000	        0.0000000000	        0.0000000000	        0.0000000000	        0.0000000000	
        0.2423242395	      -37.0319396202	      566.9768924882	      -19.3974785046	        0.3042539451	        0.0000000000	        0.0569256436	       -1.3193969692	        0.5443721540	       -0.0038578130	        0.0000000000	        0.0000000000	        0.0000000000	        0.0000000000	        0.0000000000	        0.0000000000	        0.0000000000	        0.0000000000	        0.0000000000	
        0.2550781469	      -32.3741112529	      559.1751882277	      -19.8974749577	        0.3068438673	        0.0000000000	        0.0567021137	       -1.4931939787	        0.6077690635	       -0.0070297524	        0.0000000000	        0.0000000000	        0.0000000000	        0.0000000000	        0.0000000000	        0.0000000000	        0.0000000000	        0.0000000000	        0.0000000000	
        0.2678320542	      -27.6976099809	      552.3504183192	      -20.4725167063	        0.3091364154	        0.0000000000	        0.0564785759	       -1.6475105359	        0.6630013160	       -0.0098206344	        0.0000000000	        0.0000000000	        0.0000000000	        0.0000000000	        0.0000000000	        0.0000000000	        0.0000000000	        0.0000000000	        0.0000000000	
        0.2805859615	      -22.9609025692	      546.4125500579	      -21.0378123545	        0.3111502151	        0.0000000000	        0.0562514282	       -1.7542488170	        0.6994647940	       -0.0115935635	        0.0000000000	        0.0000000000	        0.0000000000	        0.0000000000	        0.0000000000	        0.0000000000	        0.0000000000	        0.0000000000	        0.0000000000	
        0.2933398689	      -18.0248283667	      541.3483832020	      -21.4282337055	        0.3129055911	        0.0000000000	        0.0560210783	       -1.8038542824	        0.7138469927	       -0.0123432169	        0.0000000000	        0.0000000000	        0.0000000000	        0.0000000000	        0.0000000000	        0.0000000000	        0.0000000000	        0.0000000000	        0.0000000000	
        0.3060937762	      -12.9418433013	      536.7567562841	      -21.3501062630	        0.3144060175	        0.0000000000	        0.0557872626	       -1.8130798919	        0.7126511681	       -0.0125047253	        0.0000000000	        0.0000000000	        0.0000000000	        0.0000000000	        0.0000000000	        0.0000000000	        0.0000000000	        0.0000000000	        0.0000000000	
